<svg width="40" height="49" viewBox="0 0 40 49" fill="none" xmlns="http://www.w3.org/2000/svg">
<circle cx="20" cy="24.2957" r="20" fill="#58B09C"/>
<path d="M16.4644 28.5848L16.3149 25.6062C17.2577 25.5589 18.0504 25.3281 18.6932 24.9138C19.336 24.4994 19.8123 23.9728 20.1221 23.3339C20.4519 22.694 20.5982 22.003 20.561 21.2608C20.5237 20.5187 20.309 19.8458 19.9167 19.2421C19.5435 18.6174 19.0164 18.1311 18.3354 17.7832C17.6544 17.4353 16.8425 17.285 15.8998 17.3323L14.2751 17.4138L14.1271 14.4653L15.7518 14.3838C17.3163 14.3053 18.7064 14.5573 19.922 15.1397C21.1577 15.7212 22.1337 16.5369 22.8499 17.5868C23.5853 18.6156 23.9856 19.7819 24.051 21.0857C24.1165 22.3895 23.8354 23.6 23.2077 24.7174C22.5992 25.8137 21.7093 26.7129 20.538 27.4152C19.3868 28.1164 18.0289 28.5063 16.4644 28.5848ZM17.6677 35.7333C17.0258 35.7655 16.4526 35.563 15.9481 35.1258C15.4626 34.6676 15.2032 34.1075 15.17 33.4456C15.1378 32.8037 15.3408 32.2406 15.779 31.7561C16.2362 31.2505 16.7858 30.9817 17.4276 30.9495C18.0895 30.9162 18.6632 31.1288 19.1487 31.587C19.6533 32.0242 19.9216 32.5637 19.9538 33.2055C19.976 33.6468 19.8863 34.0635 19.6848 34.4557C19.5023 34.8268 19.2356 35.1217 18.8846 35.3404C18.5347 35.5792 18.129 35.7101 17.6677 35.7333Z" fill="white"/>
</svg>
